<svg id="visual" viewBox="0 0 1321 523" width="1321" height="523" xmlns="http://www.w3.org/2000/svg" xmlns:xlink="http://www.w3.org/1999/xlink" version="1.1"><rect x="0" y="0" width="1321" height="523" fill="#f0f5f6"></rect><defs><linearGradient id="grad1_0" x1="60.4%" y1="0%" x2="100%" y2="100%"><stop offset="-0.5162523900573639%" stop-color="#f0f5f6" stop-opacity="1"></stop><stop offset="100.51625239005736%" stop-color="#f0f5f6" stop-opacity="1"></stop></linearGradient></defs><defs><linearGradient id="grad2_0" x1="0%" y1="0%" x2="39.6%" y2="100%"><stop offset="-0.5162523900573639%" stop-color="#f0f5f6" stop-opacity="1"></stop><stop offset="100.51625239005736%" stop-color="#f0f5f6" stop-opacity="1"></stop></linearGradient></defs><g transform="translate(1321, 0)"><path d="M0 130.8C-21.4 125 -42.8 119.3 -63 109.1C-83.2 98.9 -102.1 84.3 -113.2 65.4C-124.3 46.4 -127.5 23.2 -130.7 0L0 0Z" fill="#ffefe8"></path></g><g transform="translate(0, 523)"><path d="M0 -130.7C21.1 -124.6 42.3 -118.4 62.5 -108.3C82.7 -98.1 102 -84.1 113.2 -65.4C124.5 -46.7 127.6 -23.3 130.8 0L0 0Z" fill="#ffefe8"></path></g></svg>