<svg id="visual" viewBox="0 0 1321 523" width="1321" height="523" xmlns="http://www.w3.org/2000/svg" xmlns:xlink="http://www.w3.org/1999/xlink" version="1.1"><path d="M0 473L31.5 467.3C63 461.7 126 450.3 188.8 449.5C251.7 448.7 314.3 458.3 377.2 458.3C440 458.3 503 448.7 566 447.5C629 446.3 692 453.7 755 457.7C818 461.7 881 462.3 943.8 463.7C1006.7 465 1069.3 467 1132.2 466C1195 465 1258 461 1289.5 459L1321 457L1321 524L1289.5 524C1258 524 1195 524 1132.2 524C1069.3 524 1006.7 524 943.8 524C881 524 818 524 755 524C692 524 629 524 566 524C503 524 440 524 377.2 524C314.3 524 251.7 524 188.8 524C126 524 63 524 31.5 524L0 524Z" fill="#ffefe8" stroke-linecap="round" stroke-linejoin="miter"></path></svg>